:SAMPLES-PER-SECOND 30
:FRAME-RANGE 1-1700
:FULLY-SPECIFIED
:DEGREES
426
root  49.7057 38.2437 5.63027 160.624 13.8168 172.38
RightUpLeg  -7.55626 2.56491 -2.009
RightLeg  23.5272 -4.3349 -2.28476
RightFoot  -20.2504 0.283179 5.39458
RightToes  6.35937e-011 1.2921e-014 -6.02303e-014
Spine  20.5987 1.44201 0.343381
Spine1  -1.35626 -0.108491 3.25342
HEad  20.249 28.3832 -11.1387
LeftShoulder1  2.93335 -12.8316 -11.2155
LeftArm  22.5419 -38.1032 -81.5753
LeftForeArm  67.4829 -0.742083 -14.4788
LeftHand  -0.245895 10.4027 -4.17629
RightShoulder  3.27383 8.93125 20.5091
RightArm  -9.14865 34.4804 73.2571
RightForeArm  94.1604 -4.72206 6.34115
RightHand  0.520742 -9.89768 -14.0909
LeftUpLeg  -96.9186 10.0673 -53.5169
LeftLeg  110.282 -3.33037 7.35106
LeftFoot  -31.1254 -0.69225 -5.04288
LeftToes  -1.9349e-011 5.45182e-011 1.33515e-010
427
root  49.8361 37.0282 4.43086 158.741 13.9079 172.461
RightUpLeg  -12.4251 0.508354 -1.51344
RightLeg  35.2631 -2.83931 -2.42435
RightFoot  -3.4705 0.390218 -6.00346
RightToes  6.35937e-011 1.2921e-014 -6.02303e-014
Spine  20.8765 2.03609 1.93733
Spine1  -1.0682 -0.00232258 4.54463
HEad  21.6068 29.0388 -11.0284
LeftShoulder1  2.83428 -13.0133 -10.3147
LeftArm  23.1627 -38.3086 -83.1501
LeftForeArm  68.4773 -0.909694 -14.4482
LeftHand  -0.278594 10.3379 -4.96877
RightShoulder  3.05176 8.70361 19.0612
RightArm  -7.02362 33.308 73.2012
RightForeArm  91.247 -5.15677 8.20664
RightHand  0.43991 -9.37392 -13.5917
LeftUpLeg  -95.3684 12.2858 -51.3973
LeftLeg  112.037 -3.3129 6.71539
LeftFoot  -31.5635 -0.619001 -4.53649
LeftToes  -1.9349e-011 5.45182e-011 1.33515e-010
428
root  49.8797 35.4727 3.45337 155.815 15.098 174.554
RightUpLeg  -13.706 0.953328 1.12052
RightLeg  47.6268 -2.61656 -3.40875
RightFoot  -10.2506 -0.00828599 -6.38523
RightToes  6.35937e-011 1.2921e-014 -6.02303e-014
Spine  22.6912 1.07757 3.93403
Spine1  2.01163 -0.445581 5.41
HEad  20.6671 31.1125 -11.0414
LeftShoulder1  2.88835 -13.1005 -10.5782
LeftArm  21.0106 -38.1443 -81.6581
LeftForeArm  72.5255 -1.70679 -13.9736
LeftHand  -0.281185 10.5143 -4.836
RightShoulder  2.9925 8.45063 19.106
RightArm  -6.09704 35.0469 74.5168
RightForeArm  92.7823 -5.06635 8.08375
RightHand  0.578885 -10.3497 -14.1802
LeftUpLeg  -94.7642 15.3004 -49.6004
LeftLeg  113.884 -5.2503 10.0652
LeftFoot  -31.4485 -0.298245 -2.75131
LeftToes  -1.9349e-011 5.45182e-011 1.33515e-010
429
root  50.0896 34.804 2.58824 155.588 13.3048 175.99
RightUpLeg  -13.9772 -0.0860095 1.99935
RightLeg  52.8996 -3.11945 -4.81521
RightFoot  -14.5471 -0.244786 -5.23274
RightToes  6.35937e-011 1.2921e-014 -6.02303e-014
Spine  21.6696 0.255341 1.56227
Spine1  3.9039 -2.71279 9.13669
HEad  20.5221 32.5392 -9.69642
LeftShoulder1  2.93322 -13.5148 -10.3899
LeftArm  21.3839 -38.3296 -79.7263
LeftForeArm  68.3686 -0.984935 -14.3821
LeftHand  -0.257339 10.0098 -4.84922
RightShoulder  2.98121 8.18565 19.6322
RightArm  -5.1139 35.563 75.0491
RightForeArm  94.2493 -5.05106 8.41491
RightHand  0.579916 -10.5984 -13.5699
LeftUpLeg  -92.9632 16.0297 -50.6005
LeftLeg  114.732 -6.12278 11.3668
LeftFoot  -31.3473 -0.262008 -2.55661
LeftToes  -1.9349e-011 5.45182e-011 1.33515e-010
430
root  50.1056 34.3167 1.89824 156.948 12.3099 176.324
RightUpLeg  -16.0739 -0.860732 1.65508
RightLeg  56.8537 -2.83666 -5.11918
RightFoot  -17.7121 -0.368077 -4.46055
RightToes  6.35937e-011 1.2921e-014 -6.02303e-014
Spine  22.1776 -0.285513 0.878859
Spine1  2.1417 -3.29809 9.68248
HEad  21.1242 32.2075 -7.57205
LeftShoulder1  3.03664 -14.0228 -10.4817
LeftArm  21.1603 -37.6789 -78.6941
LeftForeArm  64.3909 -0.319972 -14.664
LeftHand  -0.21231 9.14173 -4.76103
RightShoulder  2.83961 7.49312 20.0069
RightArm  -2.28806 34.2631 73.7378
RightForeArm  92.7002 -5.51506 10.9132
RightHand  0.501345 -10.3568 -12.4475
LeftUpLeg  -93.3618 14.6522 -53.4306
LeftLeg  115.459 -6.39565 11.5219
LeftFoot  -30.9662 -0.379274 -3.27131
LeftToes  -1.9349e-011 5.45182e-011 1.33515e-010
431
root  50.0706 34.343 1.4057 158.248 13.2747 175.727
RightUpLeg  -17.1032 0.62198 1.33049
RightLeg  57.4952 -2.85633 -5.28219
RightFoot  -18.793 -0.374232 -3.7944
RightToes  6.35937e-011 1.2921e-014 -6.02303e-014
Spine  22.1527 -0.454838 1.4661
Spine1  1.61296 -3.02582 8.19683
HEad  20.0913 32.4596 -7.19292
LeftShoulder1  3.08308 -14.012 -10.7921
LeftArm  24.0768 -36.5039 -77.2341
LeftForeArm  61.2226 -3.099 -14.5877
LeftHand  -0.199553 9.13973 -4.38996
RightShoulder  2.87024 7.52319 20.2331
RightArm  0.0870983 34.2696 73.4043
RightForeArm  90.9531 -5.6816 12.3444
RightHand  0.512869 -10.3268 -12.7741
LeftUpLeg  -94.2931 14.6237 -54.4366
LeftLeg  115.352 -5.27921 9.49571
LeftFoot  -30.8989 -0.475642 -3.83908
LeftToes  -1.9349e-011 5.45182e-011 1.33515e-010
432
root  49.9446 34.6401 0.93736 159.725 13.8673 175.692
RightUpLeg  -17.2271 2.2711 1.22993
RightLeg  56.3258 -3.22325 -5.63422
RightFoot  -19.1525 -0.323492 -2.84084
RightToes  6.35937e-011 1.2921e-014 -6.02303e-014
Spine  21.7278 -0.703006 2.00952
Spine1  1.32654 -3.10282 8.31391
HEad  20.4031 33.1487 -7.8722
LeftShoulder1  3.12723 -13.7625 -11.3699
LeftArm  26.3066 -35.645 -77.1337
LeftForeArm  60.6407 -4.70333 -14.3906
LeftHand  -0.214742 9.65778 -4.18914
RightShoulder  2.94421 7.65887 20.6069
RightArm  -0.587505 35.0322 73.1047
RightForeArm  92.7498 -5.63167 12.044
RightHand  0.607813 -10.7799 -13.7124
LeftUpLeg  -94.301 13.7117 -53.8083
LeftLeg  114.075 -4.88518 9.25512
LeftFoot  -30.9792 -0.437384 -3.60507
LeftToes  -1.9349e-011 5.45182e-011 1.33515e-010
433
root  49.8112 35.0136 0.54225 160.691 13.5784 174.853
RightUpLeg  -16.7818 4.0281 0.169945
RightLeg  54.8707 -3.89469 -6.34468
RightFoot  -19.8876 -0.305385 -2.28664
RightToes  6.35937e-011 1.2921e-014 -6.02303e-014
Spine  21.6913 -0.522653 0.567938
Spine1  0.568848 -3.22812 9.82453
HEad  20.6258 33.2005 -7.84323
LeftShoulder1  3.11608 -14.0454 -10.9649
LeftArm  23.2819 -36.4108 -78.5015
LeftForeArm  62.6622 -1.67605 -14.7732
LeftHand  -0.204253 9.5831 -3.99695
RightShoulder  2.96798 7.55482 21.117
RightArm  -2.1762 35.473 72.7285
RightForeArm  94.6896 -5.44214 11.0385
RightHand  0.618356 -10.9541 -13.5198
LeftUpLeg  -94.0695 11.8767 -53.4021
LeftLeg  112.585 -5.15818 10.4731
LeftFoot  -30.5039 -0.468792 -3.86475
LeftToes  -1.9349e-011 5.45182e-011 1.33515e-010
434
root  49.7146 35.3681 0.0579896 161.231 14.5167 173.734
RightUpLeg  -15.9559 6.50435 -0.752945
RightLeg  53.6243 -3.86095 -6.0087
RightFoot  -22.8086 -0.299649 -1.44658
RightToes  6.35937e-011 1.2921e-014 -6.02303e-014
Spine  21.7251 -0.305456 0.105435
Spine1  -0.445495 -2.97754 9.80326
HEad  19.0609 33.5871 -8.00794
LeftShoulder1  3.07174 -13.9799 -10.756
LeftArm  23.8709 -36.1625 -78.1329
LeftForeArm  58.5266 -2.1569 -14.8614
LeftHand  -0.185852 8.96107 -4.21204
RightShoulder  3.04372 7.59521 21.7525
RightArm  -2.74243 35.6851 72.5878
RightForeArm  95.6326 -5.341 10.6695
RightHand  0.592304 -10.8415 -13.2552
LeftUpLeg  -94.9647 11.0364 -53.052
LeftLeg  111.948 -5.32588 11.1485
LeftFoot  -30.2765 -0.413681 -3.57345
LeftToes  -1.9349e-011 5.45182e-011 1.33515e-010
435
root  49.5837 35.7766 -0.500727 161.818 15.2135 172.826
RightUpLeg  -14.8027 7.83689 -1.96406
RightLeg  51.8783 -3.73245 -5.46473
RightFoot  -25.4239 -0.132451 0.322829
RightToes  6.35937e-011 1.2921e-014 -6.02303e-014
Spine  21.0606 -0.214314 -0.0131334
Spine1  -0.844882 -2.88562 10.0123
HEad  17.4296 33.5951 -8.84164
LeftShoulder1  3.11921 -13.8924 -11.1636
LeftArm  24.4796 -35.5485 -78.0205
LeftForeArm  58.6612 -2.66289 -14.83
LeftHand  -0.175833 9.03874 -3.81054
RightShoulder  3.09387 7.59515 22.2436
RightArm  -3.40678 35.7651 72.0319
RightForeArm  96.2815 -5.25539 10.3141
RightHand  0.622066 -10.9563 -13.588
LeftUpLeg  -95.5278 10.3721 -53.1851
LeftLeg  111.179 -5.08867 11.0274
LeftFoot  -30.2056 -0.422089 -3.63506
LeftToes  -1.9349e-011 5.45182e-011 1.33515e-010
436
root  49.58 36.0942 -1.16939 162.287 16.4177 172.431
RightUpLeg  -13.6223 9.15282 -2.25378
RightLeg  50.4045 -3.66911 -5.10402
RightFoot  -25.8869 -0.0749451 0.788078
RightToes  6.35937e-011 1.2921e-014 -6.02303e-014
Spine  20.1051 0.0158644 0.441577
Spine1  -1.21255 -2.72921 10.0473
HEad  16.0204 33.5449 -9.49436
LeftShoulder1  3.20669 -14.0237 -11.5701
LeftArm  20.0229 -35.2236 -77.7058
LeftForeArm  62.5147 -0.705767 -14.6386
LeftHand  -0.172725 9.15893 -3.58249
RightShoulder  3.11142 7.59077 22.4273
RightArm  -3.57868 36.085 72.2511
RightForeArm  97.6627 -5.14854 10.0437
RightHand  0.677018 -11.409 -13.6369
LeftUpLeg  -96.7675 10.8742 -53.6863
LeftLeg  111.511 -4.46367 9.4674
LeftFoot  -30.6387 -0.436006 -3.64948
LeftToes  -1.9349e-011 5.45182e-011 1.33515e-010
437
root  49.4992 36.3095 -1.75533 162.747 17.4678 172.102
RightUpLeg  -13.0402 9.83952 -2.75789
RightLeg  49.3863 -3.51732 -4.73619
RightFoot  -24.8331 -0.00375505 1.39131
RightToes  6.35937e-011 1.2921e-014 -6.02303e-014
Spine  19.6361 -0.0696083 0.711143
Spine1  -1.73817 -2.80154 10.1929
HEad  14.4456 33.6754 -10.1037
LeftShoulder1  3.28217 -13.9839 -12.1011
LeftArm  17.8398 -34.9664 -76.6493
LeftForeArm  62.4369 0.402784 -14.5873
LeftHand  -0.163438 8.82556 -3.6813
RightShoulder  3.11744 7.67137 22.2631
RightArm  -3.22618 36.6535 73.0876
RightForeArm  99.1956 -5.0603 9.93962
RightHand  0.660883 -11.6189 -12.9212
LeftUpLeg  -97.8702 11.1858 -54.8465
LeftLeg  111.364 -4.33976 9.25556
LeftFoot  -30.5278 -0.470359 -3.87
LeftToes  -1.9349e-011 5.45182e-011 1.33515e-010
438
root  49.3928 36.3903 -2.29201 163.025 18.6965 171.691
RightUpLeg  -12.9461 10.1091 -3.44152
RightLeg  49.2714 -3.16794 -4.28538
RightFoot  -24.0352 -0.0322893 1.17389
RightToes  6.35937e-011 1.2921e-014 -6.02303e-014
Spine  19.4041 -0.222446 0.977917
Spine1  -1.8604 -2.89515 10.0694
HEad  12.3836 33.7579 -10.9678
LeftShoulder1  3.36511 -14.1212 -12.4609
LeftArm  17.1343 -34.4889 -75.05
LeftForeArm  60.4343 0.239718 -14.6142
LeftHand  -0.143176 8.41743 -3.50959
RightShoulder  3.10416 7.67959 22.1115
RightArm  -2.89195 37.0395 73.9514
RightForeArm  100.417 -4.98432 9.82137
RightHand  0.681191 -11.8696 -12.7989
LeftUpLeg  -98.8125 11.5148 -56.0554
LeftLeg  110.809 -4.41323 9.6765
LeftFoot  -30.4828 -0.478888 -3.92814
LeftToes  -1.9349e-011 5.45182e-011 1.33515e-010
